<mxfile host="app.diagrams.net" modified="2022-09-06T02:41:57.223Z" agent="5.0 (Windows NT 10.0; Win64; x64) AppleWebKit/537.36 (KHTML, like Gecko) Chrome/104.0.0.0 Safari/537.36" etag="gDNQcRDTvRkMoMpS1MMx" version="20.2.8" type="github">
  <diagram id="C5RBs43oDa-KdzZeNtuy" name="Page-1">
    <mxGraphModel dx="813" dy="431" grid="1" gridSize="10" guides="1" tooltips="1" connect="1" arrows="1" fold="1" page="1" pageScale="1" pageWidth="827" pageHeight="1169" math="0" shadow="0">
      <root>
        <mxCell id="WIyWlLk6GJQsqaUBKTNV-0" />
        <mxCell id="WIyWlLk6GJQsqaUBKTNV-1" parent="WIyWlLk6GJQsqaUBKTNV-0" />
        <mxCell id="Ygqn9ICY9HK4v7pCoJ1D-20" value="Pool" style="swimlane;childLayout=stackLayout;resizeParent=1;resizeParentMax=0;startSize=20;horizontal=0;horizontalStack=1;" vertex="1" parent="WIyWlLk6GJQsqaUBKTNV-1">
          <mxGeometry x="40" y="470" width="550" height="390" as="geometry" />
        </mxCell>
        <mxCell id="Ygqn9ICY9HK4v7pCoJ1D-21" value="数据管理方" style="swimlane;startSize=20;" vertex="1" parent="Ygqn9ICY9HK4v7pCoJ1D-20">
          <mxGeometry x="20" width="150" height="390" as="geometry" />
        </mxCell>
        <mxCell id="Ygqn9ICY9HK4v7pCoJ1D-40" value="应用接入" style="rounded=0;whiteSpace=wrap;html=1;" vertex="1" parent="Ygqn9ICY9HK4v7pCoJ1D-21">
          <mxGeometry x="20" y="50" width="110" height="40" as="geometry" />
        </mxCell>
        <mxCell id="Ygqn9ICY9HK4v7pCoJ1D-48" value="" style="endArrow=classic;html=1;rounded=0;" edge="1" parent="Ygqn9ICY9HK4v7pCoJ1D-21">
          <mxGeometry width="50" height="50" relative="1" as="geometry">
            <mxPoint x="70" y="200" as="sourcePoint" />
            <mxPoint x="170" y="200" as="targetPoint" />
          </mxGeometry>
        </mxCell>
        <mxCell id="Ygqn9ICY9HK4v7pCoJ1D-49" value="统一设定" style="edgeLabel;html=1;align=center;verticalAlign=middle;resizable=0;points=[];" vertex="1" connectable="0" parent="Ygqn9ICY9HK4v7pCoJ1D-48">
          <mxGeometry x="-0.2131" y="2" relative="1" as="geometry">
            <mxPoint y="-10" as="offset" />
          </mxGeometry>
        </mxCell>
        <mxCell id="Ygqn9ICY9HK4v7pCoJ1D-22" value="评价中心" style="swimlane;startSize=20;" vertex="1" parent="Ygqn9ICY9HK4v7pCoJ1D-20">
          <mxGeometry x="170" width="160" height="390" as="geometry" />
        </mxCell>
        <mxCell id="Ygqn9ICY9HK4v7pCoJ1D-44" value="" style="endArrow=classic;html=1;rounded=0;" edge="1" parent="Ygqn9ICY9HK4v7pCoJ1D-22">
          <mxGeometry width="50" height="50" relative="1" as="geometry">
            <mxPoint x="190" y="60" as="sourcePoint" />
            <mxPoint x="-10" y="60" as="targetPoint" />
          </mxGeometry>
        </mxCell>
        <mxCell id="Ygqn9ICY9HK4v7pCoJ1D-47" value="评价设定" style="rounded=0;whiteSpace=wrap;html=1;" vertex="1" parent="Ygqn9ICY9HK4v7pCoJ1D-22">
          <mxGeometry x="20" y="180" width="110" height="40" as="geometry" />
        </mxCell>
        <mxCell id="Ygqn9ICY9HK4v7pCoJ1D-23" value="各委办局业务系统" style="swimlane;startSize=20;" vertex="1" parent="Ygqn9ICY9HK4v7pCoJ1D-20">
          <mxGeometry x="330" width="220" height="390" as="geometry" />
        </mxCell>
        <mxCell id="Ygqn9ICY9HK4v7pCoJ1D-32" value="交通" style="rounded=1;whiteSpace=wrap;html=1;" vertex="1" parent="Ygqn9ICY9HK4v7pCoJ1D-23">
          <mxGeometry x="80" y="107.5" width="100" height="20" as="geometry" />
        </mxCell>
        <mxCell id="Ygqn9ICY9HK4v7pCoJ1D-33" value="城乡智治" style="rounded=1;whiteSpace=wrap;html=1;" vertex="1" parent="Ygqn9ICY9HK4v7pCoJ1D-23">
          <mxGeometry x="80" y="137.5" width="100" height="20" as="geometry" />
        </mxCell>
        <mxCell id="Ygqn9ICY9HK4v7pCoJ1D-34" value="市场监督" style="rounded=1;whiteSpace=wrap;html=1;" vertex="1" parent="Ygqn9ICY9HK4v7pCoJ1D-23">
          <mxGeometry x="80" y="167.5" width="100" height="20" as="geometry" />
        </mxCell>
        <mxCell id="Ygqn9ICY9HK4v7pCoJ1D-35" value="公安" style="rounded=1;whiteSpace=wrap;html=1;" vertex="1" parent="Ygqn9ICY9HK4v7pCoJ1D-23">
          <mxGeometry x="80" y="197.5" width="100" height="20" as="geometry" />
        </mxCell>
        <mxCell id="Ygqn9ICY9HK4v7pCoJ1D-36" value="农业农村" style="rounded=1;whiteSpace=wrap;html=1;" vertex="1" parent="Ygqn9ICY9HK4v7pCoJ1D-23">
          <mxGeometry x="80" y="227.5" width="100" height="20" as="geometry" />
        </mxCell>
        <mxCell id="Ygqn9ICY9HK4v7pCoJ1D-37" value="水利" style="rounded=1;whiteSpace=wrap;html=1;" vertex="1" parent="Ygqn9ICY9HK4v7pCoJ1D-23">
          <mxGeometry x="80" y="257.5" width="100" height="20" as="geometry" />
        </mxCell>
        <mxCell id="Ygqn9ICY9HK4v7pCoJ1D-38" value="消防" style="rounded=1;whiteSpace=wrap;html=1;" vertex="1" parent="Ygqn9ICY9HK4v7pCoJ1D-23">
          <mxGeometry x="80" y="287.5" width="100" height="20" as="geometry" />
        </mxCell>
        <mxCell id="Ygqn9ICY9HK4v7pCoJ1D-39" value="........" style="rounded=1;whiteSpace=wrap;html=1;fontStyle=1" vertex="1" parent="Ygqn9ICY9HK4v7pCoJ1D-23">
          <mxGeometry x="80" y="317.5" width="100" height="20" as="geometry" />
        </mxCell>
        <mxCell id="Ygqn9ICY9HK4v7pCoJ1D-43" value="" style="shape=curlyBracket;whiteSpace=wrap;html=1;rounded=1;size=0.5;" vertex="1" parent="Ygqn9ICY9HK4v7pCoJ1D-23">
          <mxGeometry x="34" y="115" width="20" height="215" as="geometry" />
        </mxCell>
        <mxCell id="Ygqn9ICY9HK4v7pCoJ1D-51" value="应该方设定" style="text;html=1;align=center;verticalAlign=middle;resizable=0;points=[];autosize=1;strokeColor=none;fillColor=none;" vertex="1" parent="Ygqn9ICY9HK4v7pCoJ1D-23">
          <mxGeometry x="-26" y="167.5" width="80" height="30" as="geometry" />
        </mxCell>
        <mxCell id="Ygqn9ICY9HK4v7pCoJ1D-50" value="" style="endArrow=classic;html=1;rounded=0;entryX=1;entryY=0.5;entryDx=0;entryDy=0;" edge="1" parent="Ygqn9ICY9HK4v7pCoJ1D-20" source="Ygqn9ICY9HK4v7pCoJ1D-43" target="Ygqn9ICY9HK4v7pCoJ1D-47">
          <mxGeometry width="50" height="50" relative="1" as="geometry">
            <mxPoint x="250" y="170" as="sourcePoint" />
            <mxPoint x="300" y="120" as="targetPoint" />
          </mxGeometry>
        </mxCell>
      </root>
    </mxGraphModel>
  </diagram>
</mxfile>
